<?xml version="1.0" encoding="iso-8859-1"?>
<!-- Generator: Adobe Illustrator 19.0.0, SVG Export Plug-In . SVG Version: 6.00 Build 0)  -->
<svg version="1.1" id="Capa_1" xmlns="http://www.w3.org/2000/svg" xmlns:xlink="http://www.w3.org/1999/xlink" x="0px" y="0px"
	 viewBox="0 0 511.999 511.999" style="enable-background:new 0 0 511.999 511.999;" xml:space="preserve">
<path style="fill:#F2D422;" d="M489.927,493.76H21.831c-16.517,0-27.028-17.701-19.174-32.198l234.05-431.905
	c8.251-15.226,30.133-15.172,38.348,0c253.805,468.365,236.705,434.366,236.705,442.294
	C511.758,483.945,502.054,493.76,489.927,493.76z"/>
<path style="fill:#E5C213;" d="M25.375,461.563C276.432-1.73,259.877,25.934,267.24,21.439c-10.676-6.517-24.597-2.734-30.534,8.219
	L2.656,461.563c-7.866,14.519,2.687,32.198,19.174,32.198h22.718C28.032,493.76,17.52,476.061,25.375,461.563z"/>
<g>
	<path style="fill:#585A60;" d="M330.382,339.801l-29.548,7.918l-29.454-17.005l29.455-17.006l29.547,7.918
		c10.015,2.676,13.785-12.343,4.01-14.963l-14.585-3.907l11.141-6.432c3.704-2.138,4.975-6.876,2.835-10.58
		c-2.139-3.704-6.876-4.974-10.58-2.834l-11.141,6.432l3.908-14.585c1.106-4.132-1.346-8.378-5.478-9.486
		c-4.125-1.103-8.378,1.344-9.486,5.477l-7.917,29.547L263.638,317.3v-34.012l21.627-21.628c3.025-3.024,3.025-7.928,0-10.952
		c-3.024-3.024-7.929-3.024-10.951,0l-10.676,10.675v-12.864c0-4.278-3.467-7.745-7.745-7.745c-4.278,0-7.745,3.468-7.745,7.745
		v12.865l-10.68-10.677c-3.023-3.024-7.928-3.024-10.952,0.001c-3.024,3.024-3.024,7.928,0.001,10.953l21.631,21.628v34.014
		l-29.455-17.006l-7.92-29.548c-1.106-4.133-5.358-6.581-9.486-5.476c-4.132,1.107-6.583,5.354-5.476,9.486l3.908,14.585
		l-11.142-6.433c-3.704-2.138-8.441-0.869-10.58,2.834c-2.138,3.705-0.869,8.441,2.835,10.58l11.141,6.432l-14.583,3.907
		c-8.718,2.338-6.965,15.228,2,15.228c1.434,0-0.551,0.421,31.555-8.182l29.455,17.005l-29.454,17.005l-29.546-7.918
		c-4.132-1.104-8.379,1.345-9.488,5.477c-1.105,4.132,1.345,8.378,5.477,9.487l14.584,3.907l-11.142,6.433
		c-3.704,2.138-4.974,6.875-2.835,10.579c2.139,3.704,6.875,4.975,10.58,2.835l11.143-6.433l-3.909,14.587
		c-1.317,4.915,2.391,9.751,7.485,9.751c3.419,0,6.549-2.282,7.475-5.741l7.92-29.551l29.455-17.006v34.014l-21.631,21.629
		c-3.024,3.024-3.024,7.928-0.001,10.953c3.025,3.024,7.93,3.024,10.952,0.001l10.68-10.678v12.866c0,4.277,3.467,7.745,7.745,7.745
		c4.278,0,7.745-3.468,7.745-7.745v-12.864l10.676,10.676c3.023,3.024,7.926,3.025,10.951,0.001
		c3.025-3.025,3.025-7.929,0.001-10.953l-21.628-21.629v-34.011l29.453,17.004l7.917,29.549c1.106,4.129,5.35,6.583,9.486,5.477
		c4.133-1.107,6.584-5.354,5.478-9.486l-3.908-14.587l11.141,6.432c3.705,2.139,8.441,0.869,10.58-2.835
		c2.139-3.704,0.869-8.441-2.835-10.579l-11.141-6.433l14.585-3.907c4.132-1.108,6.583-5.355,5.477-9.487
		C338.762,341.145,334.515,338.696,330.382,339.801z"/>
	<path style="fill:#585A60;" d="M453.306,462.105H58.457c-9.062,0-14.828-9.707-10.517-17.66L245.364,80.121
		c4.528-8.352,16.524-8.318,21.033,0l197.426,364.325C468.146,452.43,462.332,462.105,453.306,462.105z M78.542,438.185H433.22
		L255.88,110.922L78.542,438.185z"/>
</g>
<path style="fill:#414356;" d="M75.476,444.445l3.393-6.261h-0.326l177.338-327.262l0.164,0.304l13.605-25.105
	c-2.956-5.455-5.409-12.263-13.769-12.263c-4.389,0-8.424,2.404-10.517,6.262L47.94,444.445c-4.317,7.966,1.472,17.66,10.517,17.66
	h27.539C76.933,462.105,71.168,452.398,75.476,444.445z"/>
<g>
</g>
<g>
</g>
<g>
</g>
<g>
</g>
<g>
</g>
<g>
</g>
<g>
</g>
<g>
</g>
<g>
</g>
<g>
</g>
<g>
</g>
<g>
</g>
<g>
</g>
<g>
</g>
<g>
</g>
</svg>
